<svg width="86" height="108" viewBox="0 0 86 108" fill="none" xmlns="http://www.w3.org/2000/svg">
<circle cx="37.5" cy="35.5" r="32.5" fill="#EB5056"/>
<path d="M46 78C49 86.1667 60 102.6 80 103" stroke="#A69F9F" stroke-width="2" stroke-linecap="round"/>
<path d="M45.32 78.07C44.7 79.03 42.76 79.51 44.08 81.19C45.24 82.66 46.44 81.36 47.62 81.12C50.64 80.58 50.89 80.17 49.69 79.44C45.13 76.65 47.8 74.46 50.08 72.23C57.36 65.1 64.62 57.97 67.37 47.65C72.56 37.45 70.59 27.58 65.26 18.31C58.59 6.71999 44.4 0.559991 29.59 4.25999C16.83 7.44999 8.03003 18.81 6.83003 28.58C4.97003 34.67 5.42003 40.72 7.92003 46.43C13.4 58.96 23.01 67.15 35.5 72.47C38.88 73.91 43.22 74.18 45.31 78.05L45.32 78.07Z" fill="white"/>
<path d="M6.84009 28.6C8.05009 18.83 16.8401 7.46999 29.6001 4.27999C44.4101 0.569985 58.6001 6.72999 65.2701 18.33C70.6001 27.59 72.5601 37.47 67.3801 47.66C67.0301 45.74 66.6701 43.82 66.3201 41.9C66.0701 40.54 66.9501 38.75 65.1901 37.95C63.4701 37.16 61.9301 38.2 60.6401 39.14C56.2901 42.31 51.8801 45.41 47.8001 48.91C43.3601 52.72 38.3001 53.47 33.0601 52.09C20.4101 48.76 10.7801 41.79 6.84009 28.61V28.6Z" fill="#EB5056"/>
<path d="M6.84005 28.6C10.78 41.78 20.41 48.75 33.06 52.08C38.3 53.46 43.36 52.7 47.8 48.9C51.88 45.41 56.29 42.3 60.64 39.13C61.93 38.19 63.46 37.16 65.19 37.94C66.95 38.74 66.07 40.53 66.32 41.89C66.67 43.81 67.03 45.73 67.38 47.65C64.63 57.96 57.37 65.1 50.09 72.23C47.81 74.46 45.14 76.65 49.7 79.44C50.9 80.17 50.65 80.58 47.63 81.12C46.95 80.04 46.95 78.45 45.33 78.07C43.23 74.19 38.9 73.93 35.52 72.49C23.03 67.17 13.42 58.98 7.94005 46.45C5.44005 40.74 4.99005 34.68 6.85005 28.6H6.84005Z" fill="#EB5056"/>
<path d="M6.84005 28.6C10.78 41.78 20.41 48.75 33.06 52.08C38.3 53.46 43.36 52.7 47.8 48.9C51.88 45.41 56.29 42.3 60.64 39.13C61.93 38.19 63.46 37.16 65.19 37.94C66.95 38.74 66.07 40.53 66.32 41.89C66.67 43.81 67.03 45.73 67.38 47.65C64.63 57.96 57.37 65.1 50.09 72.23C47.81 74.46 45.14 76.65 49.7 79.44C50.9 80.17 50.65 80.58 47.63 81.12C46.95 80.04 46.95 78.45 45.33 78.07C43.23 74.19 38.9 73.93 35.52 72.49C23.03 67.17 13.42 58.98 7.94005 46.45C5.44005 40.74 4.99005 34.68 6.85005 28.6H6.84005Z" fill="url(#paint0_radial_208_57)"/>
<path d="M45.3199 78.0699C46.9299 78.4499 46.9299 80.0399 47.6199 81.1199C46.4399 81.3599 45.2399 82.6599 44.0799 81.1899C42.7599 79.5099 44.6999 79.0299 45.3199 78.0699Z" fill="#EB5056"/>
<rect x="43.021" y="75.83" width="6.16662" height="2.60899" rx="1.3045" transform="rotate(-9.55083 43.021 75.83)" fill="#A69F9F"/>
<ellipse cx="26.4957" cy="20.5164" rx="12.5" ry="16.5" transform="rotate(44.789 26.4957 20.5164)" fill="url(#paint1_radial_208_57)"/>
<defs>
<radialGradient id="paint0_radial_208_57" cx="0" cy="0" r="1" gradientUnits="userSpaceOnUse" gradientTransform="translate(63 74) rotate(-103.65) scale(36.0174 42.2928)">
<stop stop-color="#78292C" stop-opacity="0.4"/>
<stop offset="1" stop-color="#BD6669" stop-opacity="0"/>
</radialGradient>
<radialGradient id="paint1_radial_208_57" cx="0" cy="0" r="1" gradientUnits="userSpaceOnUse" gradientTransform="translate(26.4957 20.5164) rotate(90) scale(16.5 12.5)">
<stop stop-color="white" stop-opacity="0.4"/>
<stop offset="1" stop-color="white" stop-opacity="0"/>
</radialGradient>
</defs>
</svg>
